# xmcd
# Track frame offsets:
# 150
# 13202
# 27892
# 39340
# 53140
# 65640
# 82725
# 93367
# 105675
# 119092
# 131750
# 149232
# 160900
# 185752
# 200092
#
# Disc length: 2843 seconds
# Revision: 0
# Processed by: cddbd v1.5.1PL0 Copyright (c) Steve Scherf et al.
# Submitted via: VisiTrax 2.9.10.220 - For more info visit www.synapsa.com
#
DISCID=de0b190f
DTITLE=The Next of Kin - 20 Years
DYEAR=1992
DGENRE=Country
TTITLE0=The Lord Made A Hobo Out Of Me
TTITLE1=Detroit City
TTITLE2=The Key In The Mailbox
TTITLE3=One Minute Past Eternity
TTITLE4=Before I Met You
TTITLE5=Each Day My Whole Life Through
TTITLE6=I'll Take A Change On Loving You
TTITLE7=Rednecks White Socks and Blueribbon Beer
TTITLE8=By Your Side
TTITLE9=Home Town Life
TTITLE10=Storms Never Last
TTITLE11=Beneath The Sweet Magloliatree
TTITLE12=Precius Memories
TTITLE13=I Saw The Light
TTITLE14=The Wayward Wind
EXTD=
EXTT0=
EXTT1=
EXTT2=
EXTT3=
EXTT4=
EXTT5=
EXTT6=
EXTT7=
EXTT8=
EXTT9=
EXTT10=
EXTT11=
EXTT12=
EXTT13=
EXTT14=
PLAYORDER=
